<svg width="28" height="22" viewBox="0 0 28 22" fill="none" xmlns="http://www.w3.org/2000/svg">
<path fill-rule="evenodd" clip-rule="evenodd" d="M2.22043 0.677168C3.50329 0.246861 4.89207 0.937986 5.32238 2.22084L7.78079 9.54998H14.1273L16.2523 2.31C16.5585 1.26666 17.5158 0.549977 18.6031 0.549977H25.0182C26.3713 0.549977 27.4682 1.64688 27.4682 2.99998C27.4682 4.35308 26.3713 5.44998 25.0182 5.44998H20.4374L18.3124 12.6899C18.0062 13.7333 17.049 14.45 15.9616 14.45H6.01844C4.96559 14.45 4.03046 13.7773 3.69563 12.7791L0.676763 3.77912C0.246457 2.49626 0.937581 1.10748 2.22043 0.677168ZM9.26715 19.375C9.26715 20.8247 8.0919 22 6.64215 22C5.1924 22 4.01715 20.8247 4.01715 19.375C4.01715 17.9252 5.1924 16.75 6.64215 16.75C8.0919 16.75 9.26715 17.9252 9.26715 19.375ZM15.3922 22C16.8419 22 18.0172 20.8247 18.0172 19.375C18.0172 17.9252 16.8419 16.75 15.3922 16.75C13.9424 16.75 12.7672 17.9252 12.7672 19.375C12.7672 20.8247 13.9424 22 15.3922 22Z" fill="#6E42FF"/>
</svg>
