<svg width="40" height="41" viewBox="0 0 40 41" fill="none" xmlns="http://www.w3.org/2000/svg">
<path d="M24.0978 29.0757C23.6397 30.6398 23.1105 31.8521 22.5103 32.7124C21.9258 33.5596 21.2544 34.1527 20.4962 34.4916C19.7537 34.8305 18.9086 35 17.9608 35C16.3811 35 15.1489 34.6871 14.2643 34.0615C13.3955 33.4227 12.6609 32.3213 12.0606 30.7571L9.47785 23.7379C8.95656 22.3693 8.86178 21.3395 9.19351 20.6487C9.54104 19.9578 10.1808 19.4886 11.1128 19.2409C12.0448 18.9802 12.9137 18.9998 13.7193 19.2996C14.5407 19.5994 15.1252 20.2837 15.4728 21.3525L16.1836 23.4446C16.4206 24.1485 16.6338 24.5917 16.8234 24.7742C17.0287 24.9436 17.2815 25.0284 17.5816 25.0284C17.8028 25.0284 18.0397 24.911 18.2925 24.6764C18.561 24.4418 18.8296 23.8683 19.0981 22.9558L22.6761 11.42C23.15 9.89498 23.6318 8.72836 24.1215 7.92021C24.627 7.09902 25.33 6.53852 26.2304 6.23872C27.1308 5.92589 28.16 5.76558 29.3732 6.76671C30.5864 7.76784 29.8487 9.84117 28.7658 13.3557L24.0978 29.0757Z" fill="#EEEEEE"/>
</svg>
