<svg width="124" height="91" viewBox="0 0 124 91" fill="none" xmlns="http://www.w3.org/2000/svg">
<path d="M66.3042 66.4147L65.9443 62.2917C65.7495 60.061 64.5375 58.0446 62.6589 56.8261C60.8142 55.6296 58.527 55.3325 56.4378 56.018L54.6468 56.6057C51.7896 57.5432 49.429 59.5896 48.0955 62.2849L47.2301 64.0341C45.968 66.5849 44.0429 68.7492 41.6565 70.3L40.1709 71.2655C35.4151 74.356 29.6613 75.5205 24.078 74.5225L18.7285 73.5663C13.9631 72.7145 9.71559 70.0433 6.88354 66.1172C4.18923 62.3821 2.97206 57.7822 3.46643 53.2033L3.99828 48.2772C4.85941 40.3013 8.72459 32.9524 14.8086 27.7235L21.2934 22.15C30.8011 13.9785 42.8895 9.42797 55.4256 9.3014L58.9843 9.26547C69.1332 9.16299 79.1094 11.8953 87.7898 17.1549L93.4147 20.5631C100.664 24.9557 106.577 31.2445 110.515 38.751L113.212 43.8918C116.265 49.7122 117.295 56.3831 116.138 62.8532L115.551 66.14C114.184 73.7831 109.105 80.2459 102.002 83.3803C96.7356 85.704 90.7962 85.9989 85.3256 84.2083L80.2831 82.5578C76.9373 81.4627 73.9278 79.529 71.5413 76.941L70.4149 75.7195C68.053 73.1581 66.6072 69.8857 66.3042 66.4147Z" fill="#E18282"/>
<path d="M12.9864 54.0963C11.6653 53.0609 10.7614 52.1296 10.2748 51.3024C9.78526 50.4567 9.60178 49.6759 9.72439 48.96C9.84399 48.2255 10.1375 47.5345 10.6048 46.8868C11.3448 45.8613 12.2877 45.294 13.4333 45.1851C14.5759 45.0575 16.2151 45.2882 18.3509 45.8773L23.694 46.9012C24.1515 47.0179 24.4971 47.0621 24.7309 47.0338C24.9725 46.9948 25.1595 46.8835 25.292 46.7C25.4166 46.5272 25.4384 46.3378 25.3574 46.1316C25.2734 45.9068 25.0316 45.6503 24.6322 45.3621C24.276 45.105 23.9282 44.8705 23.5888 44.6584C23.2571 44.4355 22.9108 44.2102 22.5498 43.9825C22.1888 43.7549 21.8062 43.5116 21.402 43.2528C20.987 42.9862 20.5181 42.6806 19.9951 42.3361L19.5903 42.044C18.3226 41.162 17.5713 40.2013 17.3364 39.1618C17.1094 38.1115 17.3269 37.1276 17.989 36.2101C18.5187 35.476 19.1285 34.9722 19.8184 34.6985C20.5162 34.414 21.3555 34.4452 22.3365 34.7919C23.3144 35.12 24.4964 35.8252 25.8823 36.9073L40.1766 47.9114C41.6951 49.1057 42.5679 50.2279 42.7949 51.2782C43.0112 52.3207 42.7649 53.3331 42.0561 54.3154C41.5965 54.9523 41.0448 55.4324 40.4011 55.7559C39.7573 56.0793 38.9597 56.2178 38.0082 56.1714C37.0646 56.1143 35.9113 55.8812 34.5484 55.4723L27.9488 54.1081C27.5099 53.9884 27.1751 53.952 26.9443 53.9988C26.7213 54.0349 26.5358 54.1555 26.3878 54.3606C26.232 54.5764 26.1937 54.8115 26.273 55.0656C26.3522 55.3198 26.6077 55.6027 27.0395 55.9143C27.6224 56.3349 28.2293 56.7564 28.8602 57.1788C29.4988 57.5904 30.1282 58.0035 30.7483 58.4181C31.3576 58.825 31.9645 59.2465 32.569 59.6827L32.8119 59.858C34.0425 60.7459 34.7368 61.6491 34.8948 62.5676C35.0421 63.4782 34.7964 64.3761 34.1576 65.2612C33.6747 65.9305 33.1068 66.399 32.4541 66.6666C31.8013 66.9343 30.9658 66.8978 29.9477 66.5571C28.9266 66.1978 27.6367 65.4147 26.078 64.2079L12.9864 54.0963Z" fill="#FFA6A6"/>
<path d="M32.6612 32.8017C31.6185 31.5955 30.8686 30.4445 30.4117 29.3485C29.9547 28.2525 29.8942 27.2889 30.2303 26.4576C30.5746 25.6094 31.4084 24.9604 32.7318 24.5105C33.4376 24.2705 34.0708 24.2099 34.6313 24.3287C35.2002 24.4305 35.7725 24.7492 36.3482 25.2846C36.9196 25.8074 37.5746 26.5759 38.3131 27.5902L40.8561 30.4797C41.3143 31.0832 41.6682 31.4831 41.9177 31.6794C42.1756 31.8589 42.4116 31.9122 42.6259 31.8394C42.8653 31.758 43.0347 31.5738 43.1341 31.287C43.2417 30.9833 43.3205 30.4292 43.3704 29.6249L43.9037 24.8039C43.9796 23.4142 44.2091 22.3731 44.5923 21.6805C44.988 20.9835 45.6459 20.4787 46.566 20.1659C47.7129 19.776 48.6495 19.7809 49.376 20.1807C50.1024 20.5805 50.6223 21.2825 50.9355 22.2867C51.2571 23.2741 51.3695 24.4731 51.2727 25.8839L50.4414 33.6745C50.3942 34.2389 50.3407 34.7843 50.2806 35.3109C50.2206 35.8375 50.1487 36.4735 50.0647 37.2191C49.9802 37.8805 49.9246 38.4407 49.8979 38.8997C49.8795 39.3419 49.901 39.7774 49.9625 40.2064C50.0197 40.6228 50.1196 41.1442 50.2623 41.7706L51.1466 44.992C51.4974 46.6443 51.4757 47.9452 51.0814 48.8947C50.6955 49.8273 49.9543 50.48 48.8578 50.8528C47.7109 51.2427 46.7193 51.2002 45.8829 50.7252C45.0466 50.2503 44.2868 49.194 43.6035 47.5564L42.686 45.1055C42.3565 44.2193 42.0473 43.5371 41.7582 43.0589C41.4691 42.5807 41.1698 42.1552 40.8602 41.7824C40.5081 41.3257 40.1055 40.865 39.6523 40.4005C39.1991 39.9359 38.6504 39.3351 38.0061 38.598L32.6612 32.8017Z" fill="#FFA6A6"/>
<path d="M56.8925 25.2262C57.4503 22.9893 58.0551 21.3153 58.7069 20.2042C59.3587 19.0931 60.0721 18.4033 60.8471 18.1348C61.6221 17.8664 62.4751 17.8714 63.4061 18.1498C64.4264 18.4549 65.1562 19.0344 65.5956 19.8882C66.0349 20.7421 66.112 22.0643 65.8267 23.8547L65.1333 26.9402C64.9899 27.7449 64.9643 28.3416 65.0564 28.7304C65.1486 29.1192 65.4051 29.3765 65.826 29.5024L67.8155 30.0973C68.3512 30.2575 68.7987 30.2246 69.158 29.9986C69.5301 29.7764 69.8899 29.224 70.2372 28.3414L71.1584 25.4698C71.8697 23.8346 72.6133 22.7649 73.3894 22.2605C74.1692 21.7435 75.1713 21.668 76.3957 22.0341C77.1864 22.2706 77.8109 22.6449 78.269 23.157C78.7438 23.6602 78.9804 24.4257 78.9787 25.4534C78.9771 26.481 78.6819 27.8864 78.0931 29.6694L73.4316 44.073C72.7933 46.0218 72.1673 47.488 71.5536 48.4716C70.9527 49.459 70.3087 50.0792 69.6217 50.3323C68.9512 50.5764 68.1888 50.5707 67.3343 50.3152C66.2757 49.9987 65.6013 49.3732 65.311 48.4389C65.0335 47.5084 65.0617 46.1829 65.3955 44.4626L66.1597 41.4191C66.3477 40.5583 66.3637 39.924 66.2078 39.5161C66.0684 39.0993 65.7666 38.8076 65.3024 38.6409L63.5213 38.0458C63.0659 37.8958 62.6879 37.9286 62.3872 38.1444C62.1031 38.3512 61.7943 38.8493 61.461 39.6389L60.2455 42.7976C59.5431 44.4493 58.7938 45.6077 57.9975 46.2727C57.2178 46.9288 56.2476 47.0833 55.087 46.7362C54.5386 46.5722 54.0736 46.3151 53.6921 45.9648C53.3067 45.6272 53.0258 45.1264 52.8492 44.4623C52.6893 43.7892 52.6553 42.9037 52.7474 41.8058C52.8561 40.699 53.122 39.2988 53.5451 37.6052L56.8925 25.2262Z" fill="#FFA6A6"/>
<path d="M83.453 39.5593C85.171 37.9081 86.6594 36.6713 87.9184 35.8489C89.1871 35.0173 90.3351 34.5693 91.3626 34.5049C92.3996 34.4313 93.4156 34.7104 94.4104 35.342C95.4149 35.9644 96.5073 36.8993 97.6877 38.1466L99.8971 40.6758C101.189 42.0194 101.856 43.233 101.901 44.3166C101.964 45.4005 101.612 46.3114 100.844 47.0494C100.115 47.7505 99.3033 48.078 98.4098 48.0321C97.5259 47.9769 96.4775 47.4336 95.2646 46.4023L93.1708 44.4543C92.6435 43.9826 92.2203 43.7247 91.901 43.6807C91.5818 43.6367 91.2352 43.7852 90.8613 44.1262L89.9992 44.8717C89.5969 45.2214 89.4062 45.5801 89.4272 45.9477C89.4481 46.3153 89.6748 46.7529 90.1073 47.2604L91.5026 48.8273C92.3778 49.7955 92.8402 50.6897 92.8899 51.5097C92.9583 52.3301 92.6711 53.0494 92.0281 53.6674C91.2795 54.3869 90.507 54.6494 89.7106 54.4547C88.933 54.2604 88.1278 53.7973 87.295 53.0653L85.9506 51.7818C85.3588 51.2429 84.8279 50.9499 84.3581 50.903C83.9071 50.8564 83.4602 51.0829 83.0172 51.5825L82.2946 52.4155C81.9864 52.7672 81.7824 53.0832 81.6827 53.3637C81.583 53.6441 81.6053 53.9458 81.7495 54.2688C81.9126 54.5921 82.1967 54.9838 82.6018 55.4437L83.9982 56.9541C85.1575 58.314 85.7891 59.4609 85.893 60.395C86.0157 61.3295 85.7124 62.1473 84.983 62.8484C84.3975 63.411 83.7695 63.747 83.0989 63.8561C82.4375 63.9748 81.6779 63.8279 80.8199 63.4155C79.9711 63.0127 78.9826 62.3011 77.8542 61.2808L75.9309 59.2798C74.59 58.0576 73.6284 56.9323 73.0463 55.904C72.4641 54.8757 72.2635 53.8314 72.4446 52.7712C72.6349 51.7205 73.2182 50.5505 74.1946 49.2612C75.1899 47.9723 76.585 46.4559 78.3801 44.7121L83.453 39.5593Z" fill="#FFA6A6"/>
<path d="M97.1441 59.5412C97.9888 59.1784 98.5243 58.7872 98.7507 58.3678C98.9771 57.9483 98.9433 57.403 98.6493 56.732L98.1111 55.6614C97.6855 54.6253 97.6693 53.6873 98.0624 52.8476C98.4734 52.014 99.1525 51.3689 100.1 50.9123C101.383 50.2938 102.545 50.2361 103.585 50.7394C104.626 51.2426 105.471 52.2759 106.121 53.8393L110.383 63.6442C110.901 64.8722 111.031 65.9547 110.773 66.8917C110.516 67.8286 109.943 68.511 109.056 68.9388C108.456 69.2278 107.852 69.4155 107.244 69.502C106.653 69.5947 106.082 69.515 105.532 69.2629C104.982 69.0109 104.475 68.5094 104.009 67.7584L103.443 66.7679C103.158 66.2994 102.814 65.9997 102.411 65.8688C102.008 65.738 101.456 65.8342 100.755 66.1575L87.2506 72.4013C85.722 73.1234 84.3999 73.3544 83.2843 73.0942C82.1865 72.8402 81.3717 72.1616 80.8399 71.0584C80.1983 69.7274 80.1907 68.6079 80.817 67.7001C81.4612 66.7985 82.673 65.9557 84.4526 65.1717L97.1441 59.5412Z" fill="#FFA6A6"/>
</svg>
