<svg width="149" height="148" viewBox="0 0 149 148" fill="none" xmlns="http://www.w3.org/2000/svg">
<path d="M132.425 62.6728L130.833 56.6107C129.031 49.7468 125.817 43.2354 121.495 37.6073C115.071 29.2442 106.189 22.8941 96.1715 19.5998C90.1845 17.631 83.8919 16.7563 77.595 17.0175L74.9578 17.127C69.1969 17.366 63.499 18.4204 58.0341 20.2586C49.5048 23.1276 41.7158 27.8477 35.2251 34.0806L34.3733 34.8986C27.8907 41.1238 22.7417 48.6022 19.2393 56.8792L13.765 69.8162C11.7443 74.5915 10.6076 79.6942 10.4102 84.8757L10.0657 93.9161C9.71189 103.2 14.2122 112 21.9466 117.148L23.0865 117.907C28.4132 121.452 34.9562 122.669 41.2016 121.278C47.0354 119.977 52.1537 116.501 55.5128 111.557L57.4824 108.658C59.7466 105.326 61.3677 101.6 62.2624 97.6721L66.3137 79.8851L68.4219 73.4743C69.2256 71.0304 71.1445 69.115 73.5898 68.3159C76.7927 67.2691 80.309 68.319 82.4137 70.9505L82.8861 71.5412C84.5297 73.5962 85.2118 76.258 84.7591 78.8502L83.8955 83.7957C82.9212 89.3753 84.3217 95.1083 87.7588 99.6102L88.8768 101.075C92.3831 105.667 97.5351 108.719 103.247 109.588C110.719 110.724 118.258 107.999 123.275 102.347L125.083 100.31C127.559 97.5212 129.438 94.2545 130.603 90.7115L131.668 87.4705C134.306 79.4503 134.568 70.8387 132.425 62.6728Z" fill="#6E42FF"/>
<path d="M27.1349 102.796C24.843 102.059 23.0433 101.303 21.7358 100.526C20.415 99.7449 19.4846 98.9153 18.9446 98.0374C18.4045 97.1594 18.1553 96.1979 18.197 95.1527C18.2386 94.1075 18.4584 92.9387 18.8563 91.6465L19.3188 90.4667C20.1881 87.7588 21.3288 85.6547 22.7408 84.1543C24.1529 82.6538 25.7616 81.7156 27.5667 81.3397C29.3586 80.959 31.2694 81.128 33.299 81.8467C36.549 82.9975 38.7405 84.5871 39.8734 86.6155C41.0064 88.6439 41.2123 91.098 40.4912 93.9777L40.3842 94.3429C40.0723 95.5611 40.0577 96.4666 40.3405 97.0594C40.6279 97.6389 41.3787 98.1958 42.5928 98.7302L44.4106 99.3515C45.6028 99.8632 46.4875 100.4 47.0645 100.963C47.6416 101.526 47.9778 102.115 48.0732 102.731C48.1819 103.352 48.107 104.027 47.8487 104.756C47.6044 105.446 47.26 106.018 46.8153 106.473C46.3754 106.914 45.7292 107.201 44.8766 107.332C44.0155 107.445 42.8419 107.365 41.3559 107.093C39.8566 106.816 37.9412 106.302 35.6095 105.551L27.1349 102.796ZM31.8906 91.8952C31.5938 91.3422 31.1004 90.9436 30.4106 90.6993C29.7076 90.4504 29.0866 90.4544 28.5477 90.7115C28.0003 90.9506 27.6258 91.4599 27.4244 92.2395L27.3821 92.3589C27.2912 92.7 27.2702 92.9911 27.3192 93.2324C27.3681 93.4736 27.5088 93.6876 27.7412 93.8744C27.9783 94.048 28.3291 94.217 28.7933 94.3814L29.3107 94.5646C30.0934 94.8417 30.6639 94.9168 31.0223 94.79C31.3675 94.6584 31.6148 94.4026 31.7643 94.0226L31.8335 93.8904C32.1552 93.1085 32.1742 92.4435 31.8906 91.8952Z" fill="#5910B6"/>
<path d="M40.1661 53.6145C42.0532 53.8741 44.1466 54.5515 46.4462 55.6466L47.2086 56.0097C49.8767 57.2803 52.0554 58.6296 53.7446 60.0575C55.4398 61.4728 56.6737 62.9566 57.4463 64.5092C58.2249 66.049 58.5891 67.6408 58.5388 69.2847C58.4885 70.9285 58.061 72.5954 57.2563 74.2852C56.4092 76.0639 55.3987 77.5311 54.225 78.6867C53.0512 79.8422 51.6596 80.6369 50.0502 81.0707C48.4408 81.5044 46.5655 81.531 44.4243 81.1503C42.2892 80.757 39.8367 79.9008 37.067 78.5818L36.3237 78.2278C34.0367 77.1387 32.1814 75.9122 30.7578 74.5484C29.3276 73.1659 28.3018 71.7032 27.6805 70.1604C27.0592 68.6175 26.7961 67.0426 26.8911 65.4357C26.9922 63.816 27.4179 62.2185 28.1682 60.643C28.979 58.9405 29.9588 57.5211 31.1078 56.3849C32.2629 55.236 33.5912 54.4268 35.0929 53.9573C36.588 53.4691 38.279 53.3548 40.1661 53.6145ZM41.9489 70.2452C42.7493 70.6264 43.4935 70.8639 44.1814 70.9577C44.8693 71.0515 45.4723 70.9801 45.9902 70.7436C46.4954 70.501 46.8902 70.0811 47.1745 69.484C47.4589 68.8868 47.5558 68.3562 47.465 67.8921C47.3616 67.422 47.0666 66.9776 46.5802 66.5589C46.0938 66.1402 45.3995 65.7161 44.4974 65.2865L44.2878 65.1867C43.3349 64.7329 42.4797 64.4503 41.7222 64.3389C40.9647 64.2276 40.3267 64.2745 39.8082 64.4795C39.277 64.6786 38.8934 65.0259 38.6574 65.5214C38.367 66.1312 38.3089 66.7114 38.4831 67.262C38.6573 67.8126 39.0261 68.3311 39.5893 68.8176C40.1586 69.2913 40.8753 69.7339 41.7393 70.1454L41.9489 70.2452Z" fill="#5910B6"/>
<path d="M48.9476 48.8923C47.3576 47.0846 46.2004 45.5123 45.4758 44.1753C44.7423 42.8275 44.3688 41.6382 44.3552 40.6075C44.3416 39.5769 44.6206 38.6235 45.1922 37.7475C45.7638 36.8714 46.5517 35.9807 47.5558 35.0751L48.5578 34.2993C50.6923 32.42 52.7504 31.1982 54.7321 30.6339C56.7137 30.0696 58.5758 30.0887 60.3184 30.6914C62.0521 31.2832 63.606 32.4079 64.9802 34.0654C67.1806 36.7197 68.2473 39.2081 68.1801 41.5304C68.1129 43.8528 67.0316 46.0654 64.9361 48.1682L64.6571 48.4269C63.7647 49.3129 63.288 50.0829 63.2268 50.7368C63.1765 51.3817 63.5356 52.2448 64.304 53.3261L65.5462 54.7914C66.3075 55.842 66.7917 56.7568 66.9987 57.5357C67.2057 58.3146 67.1923 58.9929 66.9584 59.5707C66.7335 60.1593 66.3231 60.7006 65.7272 61.1946C65.1639 61.6617 64.5748 61.9764 63.9599 62.1388C63.3559 62.2922 62.6543 62.2066 61.8552 61.8821C61.0578 61.5377 60.0911 60.8676 58.9549 59.8719C57.8097 58.8654 56.4286 57.4421 54.8117 55.6019L48.9476 48.8923ZM58.6194 41.9709C58.648 41.344 58.4288 40.7488 57.9618 40.1854C57.4858 39.6113 56.9505 39.2964 56.3561 39.2408C55.7635 39.1654 55.1809 39.4108 54.6082 39.9769L54.5107 40.0577C54.2579 40.3039 54.0906 40.5432 54.0089 40.7754C53.9272 41.0076 53.9383 41.2635 54.0421 41.543C54.1567 41.8136 54.3712 42.1385 54.6855 42.5177L55.0358 42.9402C55.5657 43.5794 56.0171 43.9364 56.3899 44.0112C56.7537 44.0752 57.0971 43.9824 57.4203 43.7327L57.5475 43.6547C58.2245 43.1483 58.5818 42.5871 58.6194 41.9709Z" fill="#5910B6"/>
<path d="M72.4766 36.5234C72.673 34.124 73.0007 32.1994 73.4596 30.7496C73.92 29.2858 74.5163 28.1911 75.2485 27.4656C75.9806 26.74 76.8604 26.2787 77.8877 26.0816C78.9149 25.8846 80.103 25.8329 81.4519 25.9265L82.706 26.1087C85.5405 26.3395 87.8489 26.9719 89.6311 28.0058C91.4133 29.0398 92.6927 30.3929 93.4693 32.0653C94.2474 33.7237 94.5172 35.6229 94.2789 37.7627C93.8971 41.1893 92.8474 43.6849 91.1298 45.2493C89.4121 46.8137 87.0691 47.5722 84.1009 47.5248L83.7209 47.5037C82.4637 47.4769 81.5786 47.6686 81.0656 48.0787C80.5667 48.4904 80.195 49.3481 79.9507 50.6519L79.759 52.5633C79.5317 53.8407 79.2097 54.8243 78.793 55.5142C78.3764 56.2041 77.8789 56.6655 77.3008 56.8985C76.721 57.1454 76.0465 57.226 75.2773 57.1403C74.55 57.0593 73.9145 56.854 73.3706 56.5244C72.8408 56.1963 72.4152 55.6321 72.0937 54.8316C71.7878 54.0188 71.5985 52.8578 71.5259 51.3488C71.4549 49.8258 71.5199 47.8437 71.7211 45.4023L72.4766 36.5234ZM84.1733 38.676C84.6443 38.2612 84.9203 37.6901 85.0014 36.9629C85.0839 36.2216 84.9388 35.6178 84.566 35.1515C84.2087 34.6727 83.6275 34.4239 82.8225 34.405L82.6967 34.391C82.3439 34.38 82.0556 34.4258 81.8318 34.5283C81.608 34.6308 81.4315 34.8165 81.3025 35.0853C81.1874 35.3557 81.1026 35.7356 81.048 36.2251L80.9873 36.7706C80.8954 37.5958 80.9519 38.1684 81.157 38.4886C81.3636 38.7948 81.6689 38.9775 82.0729 39.0367L82.2174 39.074C83.0519 39.2095 83.7039 39.0768 84.1733 38.676Z" fill="#5910B6"/>
<path d="M98.9836 38.4969C100.069 36.987 101.059 35.9041 101.954 35.2481C102.86 34.6009 103.707 34.3012 104.494 34.3492C105.281 34.3972 106.044 34.7135 106.784 35.298C107.469 35.8389 107.946 36.4492 108.216 37.1289C108.486 37.8086 108.469 38.6472 108.165 39.6446C107.861 40.642 107.161 41.8913 106.065 43.3925L96.2418 56.6421C94.9231 58.4699 93.7661 59.7527 92.7705 60.4906C91.7837 61.2175 90.8912 61.5526 90.0931 61.4959C89.3037 61.4281 88.5501 61.1107 87.8324 60.5436C87.1036 59.9678 86.6161 59.3136 86.3699 58.581C86.1348 57.8572 86.2096 56.9567 86.5942 55.8796C86.9987 54.8003 87.7916 53.4449 88.9729 51.8136L98.9836 38.4969Z" fill="#5910B6"/>
<path d="M116.159 87.3079C118.129 87.5587 119.709 87.8785 120.899 88.2673C122.089 88.6561 122.97 89.0992 123.542 89.5966C124.125 90.1102 124.49 90.6507 124.636 91.2181C124.781 91.7855 124.803 92.3674 124.701 92.9639C124.571 93.7269 124.26 94.3803 123.767 94.9244C123.274 95.4684 122.495 95.8135 121.427 95.9596C120.358 96.1196 118.888 95.99 117.018 95.5707L110.517 94.2677C108.758 93.8674 107.329 93.4522 106.232 93.0221C105.147 92.6083 104.32 92.1816 103.753 91.7421C103.199 91.3049 102.841 90.8512 102.679 90.3809C102.528 89.9269 102.492 89.471 102.57 89.0132C102.674 88.4028 102.959 87.8591 103.426 87.3821C103.893 86.905 104.615 86.5644 105.592 86.36C106.581 86.172 107.901 86.1761 109.552 86.3724L116.159 87.3079ZM100.834 91.779C100.054 92.4168 98.9913 92.6208 97.6457 92.391C96.314 92.1636 95.2681 91.6423 94.5079 90.8272C93.7476 90.0122 93.4836 88.9249 93.7158 87.5655C93.8674 86.6777 94.2172 85.9665 94.7654 85.4319C95.3111 84.9113 95.943 84.5552 96.6609 84.3637C97.3928 84.1746 98.0986 84.1381 98.7783 84.2542C99.6522 84.4034 100.383 84.7209 100.971 85.2068C101.559 85.6927 101.977 86.2566 102.224 86.8984C102.483 87.5565 102.54 88.223 102.397 88.898C102.132 90.1948 101.611 91.1552 100.834 91.779Z" fill="#5910B6"/>
<path d="M100.74 80.7159C99.1238 80.274 97.6835 79.339 96.4188 77.9107C95.1716 76.4918 94.1909 74.5893 93.4768 72.203C93.1661 71.1649 92.9538 70.1855 92.8398 69.2648C92.7124 68.3481 92.6503 67.5515 92.6534 66.8748C92.6678 65.5485 92.9603 64.5135 93.531 63.7698C94.1057 63.0396 94.966 62.5031 96.112 62.1601C96.6917 61.9866 97.2895 61.9473 97.9054 62.042C98.5214 62.1368 99.0853 62.4014 99.5972 62.8357C100.113 63.2836 100.502 63.9457 100.764 64.822C100.986 65.5635 101.111 66.2018 101.139 66.737C101.185 67.2816 101.211 67.7877 101.219 68.2554C101.231 68.7367 101.316 69.2402 101.473 69.7659C101.65 70.3591 101.912 70.7657 102.257 70.9857C102.615 71.2016 103.017 71.243 103.461 71.1098C103.974 70.9565 104.357 70.6656 104.61 70.2371C104.878 69.8046 105.104 69.1126 105.289 68.1611L105.415 67.5506C106.069 64.8283 106.97 62.6345 108.117 60.9692C109.281 59.3134 110.969 58.1547 113.18 57.493C115.054 56.9322 116.751 56.9091 118.271 57.4237C119.791 57.9382 121.101 58.9049 122.201 60.3236C123.319 61.7518 124.201 63.5445 124.846 65.7016C125.145 66.6992 125.35 67.6806 125.463 68.6458C125.58 69.6245 125.617 70.4359 125.575 71.0802C125.536 72.1787 125.238 73.1201 124.679 73.9042C124.138 74.6977 123.389 75.2377 122.432 75.5242C121.205 75.8913 120.127 75.8468 119.197 75.3906C118.271 74.9479 117.641 74.167 117.306 73.048C117.157 72.5492 117.088 72.0261 117.101 71.4789C117.117 70.9451 117.128 70.3911 117.132 69.8169C117.15 69.2387 117.072 68.6597 116.899 68.08C116.762 67.6216 116.534 67.2784 116.216 67.0504C115.912 66.8184 115.537 66.7689 115.092 66.9021C114.661 67.0312 114.321 67.2944 114.073 67.6919C113.828 68.1029 113.65 68.7585 113.537 69.6588L113.454 70.1905C113.209 72.3645 112.762 74.1361 112.114 75.5051C111.484 76.8836 110.647 77.9641 109.603 78.7465C108.563 79.5424 107.315 80.1582 105.859 80.594C104.066 81.1306 102.36 81.1712 100.74 80.7159Z" fill="#5910B6"/>
</svg>
