<svg xmlns="http://www.w3.org/2000/svg" width="184" height="137" viewBox="0 0 184 137" fill="none"><path d="M97.4147 36.8918L97.0837 42.9552C96.9047 46.2357 95.2236 49.2505 92.5269 51.1271C89.8789 52.9698 86.539 53.5147 83.4426 52.6092L80.7882 51.833C76.5534 50.5946 72.9939 47.7065 70.9097 43.8176L69.5571 41.2938C67.5845 37.6134 64.658 34.5315 61.0845 32.3713L58.8597 31.0265C51.738 26.7215 43.2447 25.2886 35.1047 27.0188L27.3056 28.6765C20.3581 30.1533 14.2569 34.2733 10.2913 40.166C6.51861 45.7721 4.95339 52.5757 5.89703 59.2668L6.91223 66.4652C8.55596 78.1204 14.575 88.7126 23.7466 96.0901L33.5225 103.954C47.8553 115.483 65.7998 121.578 84.1894 121.165L89.4097 121.048C104.298 120.714 118.797 116.23 131.275 108.103L139.361 102.836C149.782 96.0483 158.153 86.5437 163.569 75.3478L167.278 67.6802C171.478 58.9991 172.669 49.1673 170.664 39.7346L169.645 34.9427C167.277 23.7996 159.52 14.5648 148.953 10.3077C141.12 7.15163 132.396 7.00282 124.459 9.88993L117.143 12.5511C112.289 14.3168 107.968 17.2962 104.592 21.2053L102.998 23.0504C99.657 26.9193 97.6933 31.7873 97.4147 36.8918Z" fill="#FFA6A6"/><path d="M41.1797 53.7697C42.1758 52.8601 42.7298 52.0602 42.8416 51.3699C42.9534 50.6795 42.6441 49.9401 41.9137 49.1514L40.6524 47.9268C39.5637 46.6955 39.0898 45.4033 39.2305 44.0501C39.3989 42.697 40.0296 41.4759 41.1228 40.387C42.6034 38.9121 44.1859 38.273 45.8705 38.4696C47.555 38.6662 49.2241 39.6915 50.8778 41.5453L61.5035 53.084C62.8127 54.5367 63.5142 55.9744 63.6081 57.3971C63.7021 58.8198 63.237 60.0411 62.2131 61.0611C61.5212 61.7503 60.7743 62.3013 59.9725 62.714C59.1983 63.1269 58.3694 63.291 57.4856 63.2064C56.6019 63.1218 55.6568 62.6712 54.6502 61.8544L53.3886 60.754C52.7681 60.2418 52.1471 59.992 51.5256 60.0046C50.9041 60.0172 50.1852 60.4163 49.3688 61.2019L33.6574 76.3563C31.8863 78.0931 30.165 79.0496 28.4935 79.2259C26.8497 79.4022 25.3937 78.8539 24.1256 77.5808C22.5956 76.0449 22.0462 74.497 22.4774 72.9372C22.9361 71.3775 24.2101 69.626 26.2993 67.6828L41.1797 53.7697Z" fill="#E18282"/><path d="M63.276 70.4659C64.1095 68.0234 64.9884 66.1863 65.9129 64.9547C66.8555 63.7302 67.8592 62.9913 68.924 62.738C69.9887 62.4848 71.1301 62.5974 72.3481 63.0758C73.4752 63.5185 74.3549 64.1369 74.9873 64.9309C75.6197 65.7249 75.935 66.8455 75.9331 68.2926C75.9312 69.7398 75.5045 71.681 74.6528 74.1164L66.9418 95.6702C65.9265 98.6289 64.9064 100.799 63.8813 102.18C62.8633 103.542 61.8129 104.347 60.73 104.593C59.6542 104.821 58.5255 104.703 57.3438 104.239C56.144 103.767 55.2331 103.095 54.6111 102.221C54.0072 101.354 53.7439 100.128 53.8211 98.5428C53.9236 96.9463 54.4309 94.8268 55.3429 92.1844L63.276 70.4659Z" fill="#E18282"/><path d="M80.3619 80.6018C79.7956 77.3089 79.5699 74.6087 79.6848 72.5013C79.797 70.3746 80.2196 68.6969 80.9526 67.4684C81.6855 66.2398 82.7083 65.3153 84.0208 64.6949C85.3333 64.0745 86.9122 63.5938 88.7576 63.2527L90.5062 63.0636C94.3958 62.3927 97.7173 62.4438 100.47 63.2166C103.224 63.9895 105.412 65.3654 107.034 67.3444C108.654 69.3041 109.674 71.7632 110.094 74.7218C110.767 79.4594 110.22 83.1768 108.453 85.874C106.686 88.5712 103.799 90.4015 99.7931 91.365L99.2751 91.4682C97.5761 91.8673 96.4528 92.4313 95.9053 93.16C95.3772 93.886 95.1745 95.1675 95.2973 97.0044L95.7012 99.6398C95.8379 101.435 95.7456 102.869 95.4243 103.94C95.103 105.012 94.5942 105.804 93.8977 106.317C93.204 106.85 92.3253 107.192 91.2618 107.343C90.2562 107.485 89.331 107.429 88.486 107.175C87.6603 106.917 86.8929 106.306 86.1838 105.341C85.4913 104.355 84.8351 102.86 84.2153 100.857C83.5927 98.8346 82.9941 96.1479 82.4195 92.797L80.3619 80.6018ZM96.8279 79.4468C97.3174 78.7262 97.4907 77.8632 97.3479 76.8577C97.2024 75.8328 96.7983 75.0715 96.1358 74.5738C95.4899 74.054 94.6227 73.9207 93.5342 74.1739L93.3602 74.1987C92.8822 74.306 92.5106 74.4673 92.2452 74.6825C91.9799 74.8978 91.807 75.2084 91.7266 75.6143C91.6655 76.0175 91.683 76.5576 91.7791 77.2344L91.8863 77.9885C92.0483 79.1294 92.3225 79.8795 92.7089 80.2389C93.0926 80.579 93.5662 80.7189 94.1297 80.6585L94.3369 80.6587C95.5054 80.5519 96.3357 80.148 96.8279 79.4468Z" fill="#E18282"/><path d="M148.906 63.0486C149.643 65.2537 149.675 67.6368 149.003 70.1978C148.328 72.7313 146.89 75.3305 144.688 77.9953C143.73 79.1546 142.763 80.1551 141.789 80.9968C140.83 81.851 139.959 82.5373 139.176 83.0556C137.634 84.0623 136.214 84.5232 134.916 84.4385C133.63 84.3388 132.348 83.7601 131.068 82.7025C130.421 82.1675 129.914 81.5082 129.548 80.7244C129.182 79.9407 129.053 79.086 129.159 78.1603C129.277 77.2195 129.741 76.2598 130.55 75.2812C131.234 74.4532 131.874 73.8166 132.47 73.3715C133.063 72.899 133.627 72.4778 134.16 72.108C134.706 71.7231 135.222 71.2371 135.707 70.6499C136.255 69.9875 136.522 69.3725 136.51 68.8049C136.483 68.2248 136.221 67.7295 135.724 67.3189C135.152 66.8461 134.521 66.6286 133.831 66.6665C133.125 66.6919 132.152 66.9647 130.912 67.4849L130.11 67.8108C126.465 69.1562 123.239 69.8096 120.433 69.7711C117.624 69.7051 114.986 68.6518 112.516 66.6113C110.424 64.8819 109.088 62.9418 108.509 60.7911C107.93 58.6403 108.034 56.3829 108.822 54.019C109.608 51.6276 110.996 49.2274 112.987 46.8186C113.907 45.7044 114.881 44.7102 115.908 43.8357C116.947 42.9462 117.854 42.2772 118.63 41.8289C119.927 41.0259 121.244 40.6441 122.579 40.6836C123.912 40.6957 125.113 41.1434 126.182 42.0268C127.552 43.159 128.333 44.4374 128.524 45.862C128.727 47.2716 128.312 48.6012 127.28 49.8508C126.819 50.4079 126.269 50.8903 125.628 51.298C124.999 51.6907 124.352 52.106 123.686 52.5439C123.005 52.9693 122.397 53.5057 121.862 54.1531C121.439 54.665 121.218 55.1923 121.201 55.735C121.168 56.2653 121.4 56.7357 121.897 57.1463C122.378 57.5445 122.944 57.7335 123.594 57.7133C124.257 57.6781 125.151 57.378 126.277 56.8133L126.954 56.4991C129.652 55.1052 132.04 54.2539 134.12 53.9452C136.196 53.6091 138.089 53.7414 139.797 54.3421C141.517 54.9277 143.19 55.8924 144.816 57.2361C146.819 58.8909 148.182 60.8284 148.906 63.0486Z" fill="#E18282"/><path d="M135.891 40.9604C133.693 39.2964 132.013 37.8191 130.85 36.5285C129.687 35.2379 128.933 34.0957 128.589 33.1018C128.242 32.0804 128.177 31.1779 128.394 30.3943C128.611 29.6107 128.987 28.8952 129.522 28.2478C130.206 27.4197 131.033 26.8487 132.002 26.5346C132.971 26.2205 134.148 26.3445 135.533 26.9065C136.931 27.4534 138.61 28.6256 140.57 30.4231L147.493 36.4865C149.333 38.1845 150.765 39.6715 151.788 40.9477C152.808 42.1964 153.508 43.2814 153.887 44.2026C154.251 45.1114 154.368 45.9049 154.238 46.5831C154.106 47.2338 153.834 47.8076 153.423 48.3045C152.876 48.9669 152.156 49.4237 151.265 49.675C150.373 49.9262 149.269 49.8369 147.951 49.4072C146.632 48.95 145.046 48.0325 143.195 46.6547L135.891 40.9604ZM157.425 46.1762C158.804 45.9479 160.224 46.4373 161.684 47.6441C163.13 48.8386 164.028 50.189 164.379 51.6955C164.731 53.202 164.297 54.693 163.077 56.1684C162.281 57.132 161.368 57.7459 160.339 58.0102C159.322 58.2595 158.316 58.2511 157.319 57.9851C156.308 57.7067 155.433 57.2626 154.696 56.653C153.747 55.8691 153.087 54.9816 152.715 53.9903C152.344 52.999 152.231 52.0317 152.377 51.0883C152.521 50.1174 152.912 49.2756 153.552 48.5628C154.767 47.1849 156.058 46.3893 157.425 46.1762Z" fill="#E18282"/></svg>